<?xml version="1.0" encoding="UTF-8"?>
<svg id="Layer_1" xmlns="http://www.w3.org/2000/svg" xmlns:xlink="http://www.w3.org/1999/xlink" version="1.1" viewBox="0 0 128 128">
  <!-- Generator: Adobe Illustrator 30.4.0, SVG Export Plug-In . SVG Version: 2.1.4 Build 226)  -->
  <defs>
    <style>
      .st0 {
        fill: none;
      }

      .st1 {
        fill: #1a99d6;
      }

      .st2 {
        fill: #1c99d6;
      }

      .st3 {
        fill: #8fbee6;
      }

      .st4 {
        fill: #1e9ad6;
      }

      .st5 {
        fill: url(#radial-gradient);
      }

      .st6 {
        fill: #1a9ad7;
      }

      .st7 {
        fill: #fff;
      }
    </style>
    <radialGradient id="radial-gradient" cx="64.01" cy="64.43" fx="64.01" fy="64.43" r="94.86" gradientTransform="translate(1.32 1.69) scale(.98 .96)" gradientUnits="userSpaceOnUse">
      <stop offset="0" stop-color="#fff"/>
      <stop offset=".23" stop-color="#f9fdfe"/>
      <stop offset=".52" stop-color="#eaf7fd"/>
      <stop offset=".83" stop-color="#d2eefc"/>
      <stop offset=".99" stop-color="#c2e8fb"/>
    </radialGradient>
  </defs>
  <rect class="st5" x="-.13" y=".67" width="128.03" height="126.16"/>
  <g>
    <path class="st1" d="M38.97,93.07c-2.06-.02-4-.45-5.82-1.24-1.37-.59-2.46-1.44-3.45-2.57-1.43-1.63-2.1-3.76-2.29-5.94v-2.61c.31-3.36,1.69-6.21,4.63-7.95,1.83-1.09,3.86-1.64,6.01-1.82h4.04c4.89.36,9.23,2.75,10.47,7.66.6,2.37.56,4.79-.1,7.14-.71,2.54-2.4,4.57-4.75,5.78-1.96,1.01-4.1,1.43-6.32,1.55-.81.04-1.55.17-2.42-.02ZM43.1,85.98c.76-1.76.71-5.1.22-7.1-.24-.97-.76-1.81-1.56-2.35-.51-.35-1.02-.37-1.6-.4-1.16-.07-2.11.47-2.68,1.49-.51.92-.78,1.94-.79,3.01v2.79c0,.99.27,1.93.7,2.79.49.98,1.34,1.53,2.41,1.65,1.42.16,2.7-.49,3.3-1.88Z"/>
    <g>
      <path class="st1" d="M78.43,79.63c-.43,4.18-3.1,6.44-7.23,6.92l-7.5.02v6.19s-8.88,0-8.88,0v-21.56s15.96.01,15.96.01c1.34.17,2.55.36,3.73.95,2.26.98,3.68,3.03,3.91,5.48v2ZM68.92,80.56c.86-.9.92-2.5.05-3.38-.75-.77-1.86-.86-2.84-.88l-2.64-.05v5.26s2.95-.05,2.95-.05c.89-.11,1.79-.18,2.48-.9Z"/>
      <path class="st1" d="M88.29,93.1l-1.77-.05c-.49-.01-.94-.1-1.42-.11-1.73-.24-3.41-.43-5.09-.86l.02-5.63c1.89.73,3.75,1.11,5.7,1.31l1.3.06c.63.03,1.16.09,1.77.03.78-.09,1.54-.1,2.28-.44.48-.22.96-.62.77-1.22-.17-.51-.72-.82-1.23-.93l-3.47-.76c-1.47-.32-2.89-.65-4.2-1.35-1.64-.87-2.74-2.28-3.03-4.12-.33-2.04.21-4.17,1.74-5.57,1.96-1.78,4.9-2.28,7.51-2.55h4.98c1.77.02,3.45.35,5.19.69v5.6c-1.64-.57-3.27-.84-4.98-1.02l-3.39-.04c-.53.09-1.03.14-1.52.36-.42.19-.87.68-.7,1.16.21.61.87.89,1.47,1.01l4.37.89c1.17.24,2.23.62,3.26,1.17,1.86,1,2.89,2.8,2.95,4.92.05,1.91-.63,3.77-2.12,5-2.25,1.85-5.33,2.32-8.17,2.47-.73.04-1.44.13-2.21-.01Z"/>
    </g>
  </g>
  <g>
    <path class="st1" d="M93.18,114.94l-.05,1.76c0,.13-.05.23-.1.27-.08.05-.18.07-.39.04l-.04-1.84c0-.19-.21-.33-.35-.33s-.35.14-.35.32v1.54c0,.2-.12.32-.27.32s-.26-.11-.26-.32v-2.23c.09-.06.3-.06.35-.02s.08.14.12.3c.14-.19.31-.32.52-.33.25,0,.44.06.61.34.18-.28.4-.38.72-.33.24.04.56.2.56.53l.02,2.03c-.16.03-.26.02-.42,0v-1.72c-.02-.18-.14-.31-.21-.38-.07-.08-.45-.1-.46.06Z"/>
    <path class="st1" d="M65.24,116.85l-.39-1.09c-.08-.22-.42-.4-.6-.27l-.03,1.2c0,.21-.12.32-.27.32s-.26-.12-.26-.32v-3.09s1.16,0,1.16,0c.37,0,.65.34.72.66.08.36.02.77-.44.95l.62,1.61c.02.06-.1.18-.16.19-.08.02-.3,0-.36-.15ZM64.97,114.14c-.19-.19-.51-.16-.74-.11,0,.27-.06.63.02.93.08.18.57.06.7-.09s.19-.55.02-.73Z"/>
    <path class="st1" d="M68.3,117.41c.35.12.74.2,1.05.05.26-.12.3-.57.19-.76-.16.15-.38.33-.56.3-.64-.09-.89-.65-.85-1.24.03-.42-.01-.84.32-1.16.29-.29.77-.23,1.09,0,.1-.16.28-.23.4-.18.2.08.13.25.12.46l-.11,2.5c-.17.67-1.18.8-1.66.43-.08-.08-.08-.3.02-.4ZM69.49,116.14c.25-.65-.02-1.35-.46-1.31-.38.04-.58.64-.38,1.36.07.26.21.43.47.41.17-.02.36-.18.37-.45Z"/>
    <path class="st1" d="M78.53,116.8c-.34.28-.85.29-1.12-.09-.61-.87-.21-2.26.49-2.3.27-.02.45.02.66.24l.02-1.35h.51s0,3.4,0,3.4c0,.14-.08.28-.17.3-.1.02-.25,0-.39-.2ZM78.57,116.02l-.02-.76c0-.29-.21-.45-.45-.45s-.45.16-.45.45v.9c0,.29.3.46.53.41.22-.05.4-.23.39-.55Z"/>
    <path class="st1" d="M90.37,116.08h-1.24s-.17.67-.17.67c-.04.15-.16.19-.23.24-.12.08-.34-.05-.31-.15l1.04-3.1c.05-.15.21-.25.32-.25s.28.09.33.25l.97,3.17c.04.12-.45.16-.5-.04l-.2-.79ZM90.2,115.65l-.43-1.45-.49,1.44h.92Z"/>
    <path class="st1" d="M101.45,115.55c.27-.18.66-.18.93-.23.08-.07.07-.37-.03-.42-.32-.17-.68-.09-.98.18-.14-.14-.13-.33-.04-.45.17-.24.9-.33,1.29-.06.16.11.31.39.31.68l-.03,1.61c0,.25-.42.1-.51-.04-.41.2-.82.25-1.12-.08-.32-.34-.29-.88.19-1.19ZM102.4,115.84c-.07-.16-.52-.1-.65.02-.16.13-.25.46-.07.66.15.16.45.06.57-.05s.25-.39.15-.63Z"/>
    <path class="st1" d="M85.04,116.82c-.36.19-.9.27-1.14-.04-.3-.37-.23-.93.17-1.21.29-.2.67-.19.99-.26.11-.22-.16-.47-.35-.49-.25-.02-.46,0-.68.27-.15-.16-.13-.34-.04-.47.14-.22.7-.32,1.2-.07.21.1.38.38.39.71l.03,1.42c0,.15-.08.27-.17.31s-.27-.05-.39-.18ZM85.05,115.84c-.07-.16-.52-.1-.65.02-.16.13-.25.46-.07.66.15.16.45.06.57-.05s.25-.39.15-.63Z"/>
    <path class="st1" d="M75.2,117.02l-.05-1.75c0-.24-.17-.43-.35-.44-.23-.02-.46.15-.46.42v1.45c0,.2-.11.32-.26.32s-.26-.12-.26-.32v-2.25c.22-.09.42.05.56.15.24-.15.52-.25.82-.15.26.09.45.4.46.74l.03,1.51c0,.16-.06.38-.48.32Z"/>
    <path class="st1" d="M73.46,115.96c-.06.63-.47,1.05-1.03,1.04s-.99-.5-.99-1.13c0-.48.03-.94.41-1.27.29-.25.74-.25,1.07-.07.44.24.6.81.54,1.43ZM72.92,115.34c-.04-.32-.19-.51-.49-.52-.23,0-.45.15-.45.45v.9c0,.29.3.45.53.41.39-.07.49-.62.41-1.24Z"/>
    <path class="st1" d="M79.92,115.87c-.04.26.12.56.31.66.27.14.6.07.87-.14.07.07.08.21.04.34-.06.23-.97.51-1.42-.07s-.47-1.42.02-2.01c.26-.31.86-.33,1.16-.09.38.32.41.83.34,1.3h-1.32ZM80.73,115.35c.11-.43-.18-.59-.46-.53-.18.04-.38.22-.36.59.17.06.71.13.82-.06Z"/>
    <path class="st1" d="M95.24,115.91c-.14.06,0,.48.12.56.19.11.46.2.7.05l.21-.13c.06-.04.24.23.16.32-.45.47-1.23.37-1.58-.22-.25-.42-.26-.99-.09-1.46s.64-.76,1.14-.58c.53.19.71.86.6,1.4l-1.27.07ZM96,115.43c.07-.3-.04-.52-.16-.58-.18-.09-.37,0-.51.07-.11.07-.24.39-.1.48.2.1.54.04.77.03Z"/>
    <path class="st1" d="M66.5,115.87c-.04.26.12.56.31.66.27.14.6.07.87-.14.06.03.11.29.01.38-.38.33-1.04.31-1.38-.11-.49-.61-.45-1.54.12-2.1.24-.24.8-.21,1.04,0,.38.33.41.83.34,1.3h-1.32ZM67.39,115.43c-.05-.49-.18-.66-.53-.6-.18.03-.38.23-.37.59.3.06.64.05.9,0Z"/>
    <path class="st1" d="M104.58,115.72c.35.19.22.7.05.96-.31.45-1.19.33-1.34.11-.07-.11-.12-.33.07-.46.23.31.74.36.9.06.26-.47-.74-.49-.97-.98-.16-.35.08-.73.34-.87.3-.17.77-.22.96.05.06.08,0,.35-.04.33l-.26-.09c-.17-.06-.3,0-.42.05-.1.05-.2.34-.05.43l.77.42Z"/>
    <path class="st1" d="M87.41,116.09c.09.26-.13.63-.3.75-.41.29-1.15.11-1.19-.02-.04-.11-.04-.29.02-.44.28.19.66.31.96.07.08-.07.06-.3-.01-.37-.22-.24-1.24-.39-.97-1.13.18-.5.88-.7,1.29-.41.07.05.05.28.03.35-.03.09-.49-.21-.78.05-.09.08-.11.35.05.42.34.16.73.28.89.74Z"/>
    <path class="st1" d="M100.07,114.91c-.44.21-.48,1.16-.11,1.5.2.18.47.17.83.06.06-.02.16.28.08.35-.31.24-.77.24-1.11.03-.65-.41-.77-1.62-.12-2.18.31-.26.77-.35,1.17-.16.12.06.11.39,0,.45-.28-.15-.5-.16-.73-.05Z"/>
    <path class="st1" d="M83.33,116.64c0,.25-.12.37-.27.37s-.26-.12-.26-.32v-3.39s.52,0,.52,0v3.34Z"/>
    <path class="st1" d="M98.05,114.9c-.37-.09-.67.13-.67.46v1.33c-.01.2-.13.32-.27.32s-.26-.12-.26-.32v-2.24c.26-.17.46.1.61.1.17,0,.38-.27.63-.1,0,.09.03.23-.02.45Z"/>
    <path class="st1" d="M71.04,116.69c0,.15-.08.26-.17.3-.13.06-.35-.03-.35-.21v-2.35s.51,0,.51,0v2.26Z"/>
    <path class="st1" d="M98.81,116.69c0,.15-.08.26-.17.3-.13.06-.35-.03-.35-.21l.02-2.23c0-.19.48-.19.48-.06l.02,2.2Z"/>
    <path class="st1" d="M73.03,113.41c-.23.5-.54.94-.8.8-.14-.08.21-1.02.8-.8Z"/>
    <path class="st1" d="M96.11,113.44s-.35.98-.77.75c0-.24.21-.7.45-.78.14-.05.27-.02.32.04Z"/>
    <path class="st1" d="M98.83,113.75c-.02.33-.21.28-.39.27-.19-.02-.2-.22-.15-.41s.15-.22.25-.23c.23-.03.3.08.29.37Z"/>
    <path class="st2" d="M70.61,114c-.18-.05-.14-.57.09-.61.26-.05.31.14.34.26.04.23,0,.47-.43.35Z"/>
  </g>
  <g>
    <path class="st1" d="M119.66,111.84h-55.62c-.12,0-.13.06-.14.1h-.21v-.31h55.96v.21Z"/>
    <path class="st3" d="M119.66,111.84v.1h-55.75s.02-.1.14-.1h55.62Z"/>
    <g>
      <g>
        <path class="st4" d="M69.38,98.17v-.76c.02-.28.35-.36.56-.33.71.12.13.99.3,1.88.09-.14.16-.24.27-.28.18-.08.34-.06.42.16-.19,0-.34-.04-.53.07.51.04.9.26,1.29.63.14.05.41-.11.54-.17.23.26.32.51.47.84.23-.05.39-.22.53-.47-.97-1.04-2.93-1.37-2.92-1.36-.02-.04-.02-.16,0-.2.06-.1.15-.04.27-.02,2.63.43,4.58,2.69,4.45,5.35-.06,1.17-.43,2.25-1.17,3.1-1.19,1.36-2.81,2.1-4.63,1.88-2.6-.32-4.55-2.5-4.6-5.05s1.8-4.83,4.4-5.26c.15-.02.21-.05.3.05l.05-.05ZM69.45,98.22l-.06.05c-.27.28-1.8.26-2.93,1.48l.52.55c.28-.41.67-.48,1.02-.66.22-.12.35-.36.66-.4.22-.03.46-.14.69-.27.27.83-.34.75-.77,1.45.4-.16.61-.26.91-.15l-.04-2.04ZM68.51,101.82c.77-.83,1.94-.43,2.54-1.2-.35-.08-.66-.05-.92-.36.36-.18.65.04,1,.17.11-.58-.42-.86-.9-.86-.35.95.26,1.67-.71,1.54l-.06-.69c-.62.16-1.19.28-1.55.79l.6.6ZM65.65,103.14c.06-1.08.44-1.95,1.14-2.69l-.52-.5c-.9.86-1.27,2-1.42,3.22.28.01.53.05.8-.03ZM74.04,103.15c.25.05.53.07.73-.04-.04-1.23-.56-2.3-1.33-3.18l-.55.53c.77.71,1.05,1.68,1.15,2.69ZM67.72,100.2c.02-.11-.1-.16-.14-.12l-.13.13c-.14.14-.27.24-.19.39.05.08.25.27.34.19l.12-.59ZM66.69,103.14c.01-.84.34-1.48.84-1.98l-.53-.49c-.72.64-.99,1.56-1.13,2.5.31.02.55.05.83-.02ZM73.73,103.14c.02-.96-.22-1.48-1.09-1.83.42.62.39,1.18.33,1.86.27.03.49.05.75-.02ZM67.41,102.7c.33-.28.67-.46.82-.83-.18-.17-.31-.39-.56-.45-.49.45-.7,1.14-.77,1.73.14.09.32.03.37-.07.04-.07.02-.28.14-.38ZM71.93,101.47h-.07s.07,0,.07,0h.14s-.07,0-.07,0h-.07ZM70.23,102.33c.27.03.68-.42.69-.73-.32.14-.61.23-.9.26.14.36.06.65.09,1.01.18-.11.07-.38.12-.55ZM72.6,102.33c-.27-.23-.35-.4-.34-.72-.18.11-.18.27-.25.49-.23-.15-.16-.31-.15-.46-.2-.06-.42.19-.34.29.22.29.54.5.9.47.06.22.25.12.19-.07ZM67.16,106.17c.71.69,1.51.96,2.35,1.07-.09.34-.27.24-.46.2-.8-.2-1.49-.47-2.09-1.06l-.52.54c1.93,1.77,4.86,1.77,6.79,0-.17-.23-.33-.39-.54-.54-.78.71-1.72,1.13-2.71,1.09.03.31-.04.5-.16.68-.18-.21-.24-.4-.24-.64l-.03-1.57c-.25-.04-.5-.25-.56-.49s.13-.52.37-.61l.93-.35c-.1-.04-.19-.14-.2-.22-.02-.12.02-.21.1-.35-.35.12-.01.7-.62.71l-.03-2.58c-.28.04-.42.17-.48.28-.06.13-.06.36.05.43l.03-.44c0-.07.23-.1.27-.03.13.23-.06.5-.11.66.11.25.25.52.07.8-.19-.09-.28-.15-.46-.13.09.21.32.19.48.22,0,.13-.01.31.06.5-.18-.05-.31-.11-.41-.06-.07.03-.4.37-.42.42-.07.18.24.17.32.4.02.07-.04.2-.12.15l-.48-.29-.49.53c.41.38.92.63,1.5.7.16.02.12.31,0,.29-.57-.06-1.04-.38-1.49-.57-.21.13-.52.2-.75.27ZM65.73,104.4l-.07-.9h-.71c-.05.45,0,.83.15,1.21.05-.43.47-.28.63-.31ZM66.77,103.55c-.4-.15-.63-.1-.91.04l.28.97c.2-.43.24-.69.63-1.01ZM67.68,105.29l.57-.54c-.37-.39-.47-.82-.58-1.27-.05.25.07.55-.25.61l.26,1.2ZM72.04,105.24c.45-.58.68-1.12.65-1.74-.16-.03-.26-.05-.43.02l.34.23c-.26.2-.47.23-.76.35-.06.4-.06.84.21,1.13ZM72.74,105.98c.6-.73,1-1.56.99-2.47-.27-.05-.48-.05-.72-.02-.04.8-.37,1.44-.87,2.03.18.04.37-.11.43-.03.08.12.07.3.17.48ZM73.46,106.72c.79-.97,1.29-2.03,1.31-3.21-.29-.06-.54-.06-.78.03-.03,1.03-.4,1.9-1.11,2.65.17.21.3.38.57.53ZM68.94,104.03c-.43.22-.56-.3-.93-.3.02.4.21.6.44.84l.49-.54ZM70.36,104v.07s0,.07,0,.07v.07s0-.07,0-.07v-.14ZM66.78,106.23c-.19-.4-.56-.5-.78-.81l-.2-.28c-.05-.07-.34-.02-.33.06.1.63.33,1.15.81,1.51l.5-.48ZM70.11,106.2v-.84c0-.05.15-.18.04-.23-.07-.03-.26,0-.24.05l.08.17.03,1.93.82-.21c-.1-.39-.42-.59-.73-.88ZM71.99,105.84s.16.03.02-.15l-.02.15ZM72.12,105.86s-.05.02-.05.05l-.1.64c.14-.01.47-.17.5-.38.02-.16-.23-.28-.34-.3Z"/>
        <path class="st1" d="M71.22,110.3c-.42-.33-.82-.91-1.4-.96-.8-.06-1.33,1.44-1.64.78l.97-.86-2.08.48c-.7.16-1.43-.06-2.03-.52.13-.17.32,0,.45,0,.72,0,1.35-.22,2.04-.36.77-.17,1.53-.2,2.28.13.89-.31,1.77-.32,2.67-.03.75.23,1.49.3,2.27.1l-.29.31c-.69.48-1.5.49-2.29.31l-1.44-.32c.12.27.45.33.58.55l.13.23s-.16.21-.22.16Z"/>
        <path class="st2" d="M64.22,100.35c0-.06.09-.06.13-.05.43-.12.73-.39,1.12-.63-.19.98-1.2,1.22-1.64,1.99.5-.06.58-.45.9-.66-.01.96-1.01,1.51-1.39,2.6-.67-1.26-1.03-2-.08-3.21-.12.7-.11,1.36.14,2.11l.45-.83c-.3.03-.28.23-.43.4v-1.56c-.01-.49.29-.97.76-1.28-.11.56-.36,1.01-.26,1.59.2-.09.28-.26.29-.46Z"/>
        <path class="st2" d="M65.66,108.95c-.92.02-1.72-.59-2.08-1.44.44.19.75.51,1.2.57.39.05.7.14,1.18.28-.24-.56-.49-1.04-.49-1.69.48.39.83.84,1.09,1.4l.4.85-1.29.03Z"/>
        <path class="st2" d="M76,107.61c-.23.78-1,1.18-1.79,1.31h-1.45c.2-.54.41-1.05.74-1.53l.73-.73c-.03.64-.27,1.11-.55,1.69.43-.11.75-.24,1.15-.24.42-.07.67-.33,1.17-.5Z"/>
        <path class="st1" d="M76.63,105.97l.1-.09s.08-.13.21-.11c-.17,1.01-.93,1.71-1.92,2l-.92.27c.45-.92.28-1.91.92-2.69.08.06.15.12.14.14l-.08.19c.14.44.06.96-.12,1.4.18.11.26-.12.35-.15.53-.19,1-.52,1.33-.95Z"/>
        <path class="st2" d="M62.93,105.86s-.08-.07-.07-.12c.06-.39-.69-.93-.45-1.77.22.27.32.55.61.54l.1.1c-.04.08-.05.2.02.32.04.07.17.11.3.1.04.07.16.15.16.2,0,.2.08.5.34.49-.08-.71,0-1.27.32-1.85.13.18.19.39.18.63l-.04,2.34-.64-.52c-.25-.2-.47-.44-.81-.46Z"/>
        <path class="st1" d="M62.86,105.74s.04.12.07.12c.28.65,1.12.84,1.71,1.25-.08-.62-.22-1.13-.04-1.75.72.74.49,1.79.99,2.69l-.92-.27c-1.01-.3-1.73-1-1.98-2.01.08-.01.12,0,.17-.02Z"/>
        <path class="st2" d="M76.53,104.84l.09-.09.69-.88c.05.54-.1,1.06-.39,1.48-.12.18-.28.3-.2.53l-.1.09c-.21-.06-.36.06-.52.2l-.79.68-.06-1.61c-.02-.48-.11-.95.25-1.43l.25,1.04.06.93.71-.94Z"/>
        <path class="st1" d="M76.63,104.75l-.09.09c-.28-.04-.29.17-.47.49-.14-1.12-.87-1.93-.67-2.88.48.51.8,1.08.83,1.77l.6-1.23.29-.78c.26.74.14,1.51-.32,2.09-.12.16-.25.24-.17.45Z"/>
        <path class="st1" d="M63.59,105.23c0-.06-.12-.14-.16-.2-.09-.16-.17-.27-.32-.42l-.1-.1c-.59-.65-.66-1.39-.49-2.31.29.73.52,1.34.93,1.92.07-.7.41-1.22.83-1.69.13.42,0,.74-.12,1.09l-.45,1.32c-.04.13.03.34-.12.39Z"/>
        <path class="st2" d="M76.04,101.83s.07.07.07.12c0,.22.05.39.13.61.23-.65.33-1.41.18-2.2.93,1.19.51,2-.07,3.24-.38-1.09-1.36-1.59-1.39-2.6l.64.61c.14.13.25.21.44.22Z"/>
        <path class="st4" d="M76.11,101.95c0-.05-.04-.12-.07-.12-.18-.4-.61-.59-.91-.9l-.61-.62c-.17-.18-.33-.38-.27-.66.24.19.44.35.69.45.03.01.07.06.09.09.09.09.21.11.34.09l.11.08c0,.18.08.35.29.44.04-.57-.11-1.03-.32-1.57.61.28.85.93.85,1.55v1.25c-.11-.03-.15-.09-.2-.09Z"/>
        <path class="st1" d="M75.48,100.37l-.11-.08c-.1-.07-.21-.12-.34-.09-.03-.03-.06-.07-.09-.09.06-.19-.13-.21-.22-.3-.41-.4-.68-.87-.92-1.32l-.15-.12c.16.17.2.02.13-.05.05.08.08.09.12.1.77.17,1.44.95,1.67,1.78.03.09-.02.17-.09.17Z"/>
        <path class="st1" d="M64.35,100.29s-.13,0-.13.05c-.05.03-.1.05-.19.03.28-.97.93-1.79,1.99-2.07l-.87,1.27-.81.71Z"/>
      </g>
      <circle class="st1" cx="99.84" cy="99.46" r=".46"/>
      <circle class="st1" cx="92.3" cy="99.46" r=".46"/>
      <g>
        <g>
          <path class="st1" d="M93.07,100.87c-.18,0-.2-.4-.12-.58h1.81c.03.21.08.5-.03.67l-.99,1.48h1.02c.03-.32.11-.69.36-.87.38-.27.84-.28,1.3-.25,0-.15-.07-.37-.19-.44-.32-.2-.74-.09-1.07.16-.13-.14-.15-.55,0-.63.57-.3,1.29-.33,1.73.13.18.19.24.62.24.87v1.63c-.31.14-.6-.03-.84-.13-.44.3-1.01.37-1.37-.16,0,.06-.08.31-.16.31l-1.83.02c-.13-.47.04-.79.29-1.13l.73-1.03-.9-.05ZM96.4,101.75c-.26-.05-.73.06-.85.33-.15.33.14.55.41.51.39-.05.49-.34.43-.83Z"/>
          <path class="st1" d="M84.46,104.11c-.18-.08-.17-.56-.03-.61.51.07.78.37,1.27.04.2-.14.27-.38.17-.67-.22.19-.53.26-.82.21-.77-.13-1.09-1.48-.56-2.43.16-.29.47-.42.75-.45s.52.19.71.4c.08-.36.36-.39.77-.29l-.03,2.52c0,.4-.09.87-.4,1.15-.49.43-1.16.43-1.82.14ZM85.88,102.2c.05-.41.06-.72,0-1.05-.05-.25-.35-.39-.51-.33-.43.16-.37,1.39-.08,1.67.14.14.57-.05.6-.29Z"/>
          <path class="st1" d="M82.49,101.28c.13.95-.59,1.89-1.53,1.86s-1.56-.95-1.45-1.81c-.06-.61.04-1.18.44-1.64.51-.59,1.5-.62,2.05-.05.41.42.55.98.49,1.64ZM81.03,102.53c.47-.03.61-.5.67-.87.14-.9-.05-1.79-.7-1.79s-.83.87-.7,1.79c.05.4.25.91.74.88Z"/>
          <path class="st1" d="M90.13,101.32v1.74s-.83,0-.83,0l.02-2.77h.54c.11-.01.19.15.22.32.29-.39.61-.48.97-.37.41.13.58.48.59.93l.05,1.89h-.82s-.01-1.95-.01-1.95c0-.21-.29-.25-.45-.21s-.26.2-.26.42Z"/>
          <path class="st1" d="M104.03,101.01l-.07,2.05h-.82s0-2.74,0-2.74c.19-.06.39-.05.56-.04.11,0,.19.16.21.32.27-.35.55-.47.88-.39.37.09.6.36.61.8v2.04s-.71,0-.71,0l-.04-2.03c0-.17-.62-.21-.63-.02Z"/>
          <path class="st1" d="M102.51,102.88c-.54.47-1.4.32-1.76-.2-.41-.6-.41-1.47.05-2.05.38-.47,1.27-.56,1.73-.14.65.61.67,1.79-.02,2.39ZM102.05,102.45c.25-.51.24-1.11-.02-1.56-.08-.15-.41-.11-.53-.03-.09.06-.2.2-.2.38v.9c0,.21.15.37.27.42s.4.07.48-.1Z"/>
          <path class="st1" d="M86.86,101.97c.23-.84,1.46-.59,1.51-.71.05-.09,0-.27-.12-.35-.33-.22-.78-.15-1.07.1l-.13-.5c.56-.42,1.36-.47,1.86.07.16.17.18.59.19.82v1.63c-.3.14-.61-.02-.79-.12-.34.21-.65.3-1.01.14-.38-.17-.59-.54-.44-1.09ZM88.33,101.74c-.11-.05-.79.02-.79.46,0,.28.17.42.48.37.4-.07.44-.76.31-.83Z"/>
          <path class="st2" d="M98.42,100.88c-.43.21-.51,1.07-.03,1.54.22.21.52.18.86-.01.12.21.09.43.05.63-.56.24-1.09.16-1.53-.2-.41-.33-.56-.94-.43-1.51.1-.46.33-.78.68-.95.4-.2.83-.27,1.22.01.13.09.12.44,0,.56-.32-.15-.58-.19-.83-.07Z"/>
          <path class="st1" d="M83.53,103.05h-.84s.03-2.75.03-2.75c.39-.09.68-.07.76.29.14-.15.38-.44.63-.37.2.06.22.63.05.66-.34.06-.64.15-.63.55v1.62Z"/>
          <rect class="st1" x="99.43" y="100.29" width=".83" height="2.79"/>
          <rect class="st1" x="91.99" y="100.29" width=".72" height="2.79"/>
          <path class="st1" d="M102.42,99.29c-.39.55-.72,1.01-.98.7-.05-.05.2-.71.37-.78.21-.1.42-.11.61.08Z"/>
        </g>
        <g>
          <path class="st1" d="M82.61,108.21l-.05-2.88-.83,2.78c-.05.17-.53.21-.58.04l-.79-2.61-.07,2.58c0,.19-.65.19-.65,0l-.04-3.69,1.09-.02.78,2.58.74-2.56h1.13s-.03,3.68-.03,3.68c-.04.14-.45.18-.69.1Z"/>
          <path class="st1" d="M90.28,107.93c-.28.3-.61.38-.97.26-.83-.29-1.09-2.08-.13-2.76.29-.21.76-.08,1.02.13l.07-1.33c.01-.19.69-.19.75,0v3.87c0,.14-.34.17-.43.14-.11-.04-.23-.09-.32-.31ZM89.49,107.5c.1.25.67.12.71-.12.15-.83.01-1.54-.41-1.49-.12.01-.37.12-.36.3,0,.41-.11.91.06,1.32Z"/>
          <path class="st1" d="M118.89,107.92c-.23.27-.54.38-.9.3-.3-.06-.5-.34-.64-.67-.35-.87-.05-1.96.56-2.16.4-.13.74-.07,1,.29l.02-1.56h.73s0,3.91,0,3.91c0,.19-.24.23-.35.22-.18,0-.33-.06-.41-.33ZM118.7,107.55c.38-.64.18-1.72-.31-1.67-.46.05-.5,1.09-.28,1.64.05.13.51.16.59.03Z"/>
          <path class="st1" d="M98.96,107.92c-.24.35-.53.37-.9.29-.28-.06-.53-.31-.62-.69-.23-.93-.09-1.99.62-2.16.4-.1.68-.02.93.31l.02-1.56h.72s0,4.09,0,4.09c-.18.06-.38.05-.54.02-.1-.02-.18-.16-.24-.3ZM98.77,107.55c.32-.5.33-1.06.06-1.5-.07-.12-.28-.19-.36-.17-.46.13-.51,1.03-.28,1.64.05.14.5.16.59.03Z"/>
          <path class="st2" d="M110.38,108.1c-.45.21-1.03.2-1.48.03-.15-.12-.12-.52-.04-.75.34.2.74.36,1.13.15.21-.11.29-.54.1-.67l-.87-.57c-.55-.37-.68-1.09-.19-1.6.4-.42,1.16-.53,1.68-.19.15.11.12.53,0,.66-.35-.21-.9-.36-1.12.01-.39.66,1.22.69,1.38,1.7.07.46-.07.98-.58,1.22Z"/>
          <path class="st1" d="M87.72,108.14l-.06-1.76c0-.21-.08-.4-.26-.43-.13-.02-.42.07-.43.27l-.08,1.9c0,.19-.72.19-.74,0l-.03-2.76h.55c.11-.01.19.15.21.3.25-.36.63-.39,1-.28.3.09.51.5.51.89l-.02,1.95c-.14.06-.58.07-.65-.07Z"/>
          <path class="st1" d="M116.25,105.37c.27-.07.52-.06.81.03v2.62c.02.19-.22.23-.34.22-.18,0-.33-.06-.41-.33-.21.24-.48.36-.82.31-.26-.04-.66-.26-.66-.63l-.03-2.24h.73s.01,1.93.01,1.93c0,.19.22.32.35.32s.35-.14.35-.32v-1.92Z"/>
          <path class="st1" d="M85.17,105.37c.26-.05.47-.04.74-.01l-.03,2.74c0,.14-.33.16-.43.14-.14-.03-.26-.14-.31-.32-.28.32-.63.38-.98.27-.29-.09-.51-.4-.51-.79v-2.04s.72,0,.72,0l.02,1.83c0,.22.18.43.34.43.26,0,.42-.21.42-.47l.04-1.78Z"/>
          <path class="st1" d="M105.54,106.5l.89-.15c-.08-.24-.14-.4-.29-.45-.41-.14-.81.26-.99.16-.08-.04-.1-.31-.04-.42.2-.38,1.62-.53,1.88.19.22.62.17,1.24.18,1.9,0,.27,0,.48-.27.52-.21.03-.42-.02-.51-.32-.26.3-.65.43-1.05.23-.29-.14-.61-.48-.54-.86.06-.35.31-.72.72-.79ZM106.44,106.91c-.39-.07-.66-.02-.85.16s-.05.49.13.59c.17.09.43.09.54-.13.1-.19.15-.43.18-.62Z"/>
          <path class="st1" d="M93.86,108.07c-.37.11-.71.29-1.11.09-.32-.16-.52-.53-.44-.99.06-.34.4-.6.83-.69l.69-.14c.1-.11-.02-.32-.12-.38-.13-.08-.28-.17-.46-.08l-.6.29c-.05-.16-.1-.53.06-.64.43-.29,1.12-.25,1.58.01.22.13.29.5.29.73v1.94c-.24.15-.54-.04-.72-.13ZM93.83,107.33c.05-.17.04-.39-.04-.43-.07-.03-.25-.02-.35-.01-.29.02-.44.22-.42.46.01.16.16.36.36.36.18,0,.38-.11.45-.38Z"/>
          <path class="st1" d="M112.6,107.92c-.27.29-.57.37-.9.29-.29-.07-.6-.31-.62-.68-.03-.47.12-.89.59-.99l1.02-.21c-.06-.35-.32-.44-.52-.45-.24-.01-.49.08-.73.3l-.14-.6c.28-.21.58-.21.93-.24.59-.05,1.13.32,1.12.96l-.03,1.92c-.31.14-.7-.02-.72-.29ZM112.62,106.91c-.23-.05-.58-.07-.76.13-.11.12-.09.49.03.59.17.16.45.08.58-.04.15-.14.23-.34.15-.68Z"/>
          <path class="st1" d="M100.89,107.54c.4.17.83.07,1.19-.04.07.18.05.3.03.45-.04.24-1.11.54-1.76-.07s-.49-1.92.25-2.39c.36-.23.91-.24,1.23.04.4.34.43.92.47,1.42l-1.61.05c-.04.16.02.46.21.54ZM101.48,106.46c.08-.42-.16-.61-.46-.61-.18,0-.32.25-.36.59.24.07.53.05.82.02Z"/>
          <path class="st1" d="M114.47,108.09c0,.22-.75.22-.76.02l-.05-3.98c.3-.05.51-.05.83.04l-.02,3.92Z"/>
          <path class="st1" d="M104.66,108.09c0,.22-.74.22-.76.02l-.05-3.98c.3-.05.51-.05.83.04l-.02,3.92Z"/>
          <path class="st1" d="M95.68,108.09c0,.22-.74.22-.76.02l-.03-3.94c.32-.09.52-.09.83-.04l-.04,3.97Z"/>
          <path class="st1" d="M92.08,108.16c-.09.15-.65.11-.67-.05l-.04-2.75c.27-.03.46-.04.73,0l-.02,2.8Z"/>
          <rect class="st1" x="91.37" y="104.21" width=".72" height=".72"/>
        </g>
      </g>
    </g>
    <g>
      <g>
        <path class="st1" d="M28.14,112.98c-.16.26-.43.4-.73.41-.25,0-.58-.18-.75-.45-.57-.91-.29-2.49.53-2.67.3-.07.59.04.88.25v-1.56s.84,0,.84,0v4.21c0,.2-.25.23-.36.22-.2,0-.35-.04-.41-.43ZM28.05,111.26c-.06-.29-.28-.4-.53-.36-.18.03-.35.19-.35.44v1c0,.28.2.46.44.44.5-.06.58-.8.44-1.52Z"/>
        <path class="st1" d="M50.33,113.08c-.28.31-.61.39-.98.26-.96-.33-1.06-2.66-.03-3.04.31-.11.66-.07.94.21l.05-1.51c.28-.08.52-.08.8-.04v4.39c-.43.09-.66.06-.77-.28ZM50.26,112.38v-1.14c.01-.22-.22-.3-.35-.33-.15-.03-.35-.02-.41.13-.33.92-.1,1.78.42,1.74.14-.01.34-.15.34-.4Z"/>
        <path class="st1" d="M40.9,113.09c-.46.37-1.22.42-1.73.16-.23-.11-.18-.57-.07-.71.43.13.84.22,1.2.05.19-.09.23-.4.16-.56-.06-.15-.26-.33-.49-.42-.73-.3-1.3-1.1-.85-1.84.41-.67,1.32-.75,1.94-.41.06.26.07.46-.04.66-.38-.15-.78-.24-1.08-.06-.17.1-.15.32-.13.43.13.48.93.51,1.34,1.2.26.44.18,1.16-.26,1.5Z"/>
        <path class="st1" d="M47.38,110.31h.84s-.01,2.87-.01,2.87c0,.22-.31.24-.45.22-.19-.03-.27-.16-.29-.45-.26.3-.55.51-.92.41-.29-.08-.66-.36-.66-.74l-.04-2.31c.29-.05.52-.05.8.04l.04,2.11c0,.21.29.25.45.21s.26-.2.26-.42v-1.94Z"/>
        <path class="st1" d="M34.81,112.09c.34-.97,1.86-.41,1.53-1.01-.22-.39-.7-.3-1.2.03l-.14-.58c.44-.29,1.46-.5,1.87.06.45.62.25,1.55.32,2.27.03.31-.03.5-.27.54-.28.05-.48-.06-.5-.45-.3.39-.72.57-1.18.36-.35-.16-.62-.68-.43-1.22ZM36.32,112.02c-.07-.16-.52-.1-.65.02-.14.12-.24.39-.11.61.12.21.49.16.64.03.13-.12.22-.41.12-.66Z"/>
        <path class="st1" d="M41.77,111.85c.38-.45.97-.44,1.49-.43,0-.23-.19-.57-.42-.6-.34-.04-.63.15-.9.29-.05-.26-.05-.45,0-.7.36-.09.7-.21,1.04-.18.58.06.98.42.98,1v1.93c.01.2-.22.23-.34.22-.19,0-.32-.07-.42-.32-.42.44-1.21.42-1.53-.17-.15-.27-.13-.8.09-1.06ZM43.26,111.97c-.35-.07-.56-.06-.75.05-.22.13-.25.49-.12.65.09.13.49.18.62.04.18-.19.24-.52.26-.74Z"/>
        <path class="st1" d="M30.37,112.7c.35.17.77.1,1.07-.12.08.09.2.33.16.53-.49.35-1.3.45-1.79,0-.64-.58-.61-1.53-.26-2.27.17-.36.53-.55.89-.58s.79.14,1.01.49c.24.4.3.84.23,1.3h-1.63c-.02.24.08.54.32.66ZM30.98,111.5c0-.34-.24-.71-.5-.67-.3.05-.46.44-.43.69.32.03.62.05.93-.02Z"/>
        <path class="st1" d="M45.3,113.25c0,.23-.74.22-.76.02l-.04-4.3h.84s-.04,4.28-.04,4.28Z"/>
        <path class="st1" d="M34.35,113.24c0,.23-.75.22-.76.02l-.04-4.29c.3-.05.51-.05.83.04l-.02,4.23Z"/>
      </g>
      <g>
        <path class="st1" d="M39.59,106.17l-.05,2.15h-.82s-.02-2.26-.02-2.26c0-.17-.31-.22-.41-.17-.12.06-.29.19-.29.39v2.04s-.73,0-.73,0l-.02-2.66c0-.1-.13-.24-.03-.33.16-.14.6-.14.69-.07.05.04.1.13.14.29.16-.23.35-.34.62-.33.29,0,.52.1.79.37.25-.38.64-.45,1.04-.32.31.1.51.5.51.89v2.16s-.73,0-.73,0v-2.05c0-.18-.15-.36-.27-.39s-.41.09-.41.29Z"/>
        <path class="st1" d="M28.2,106.65l-.82.17-.05,1.41c-.1.17-.56.15-.78.09v-4.1s1.23,0,1.23,0c.71,0,1.15.55,1.15,1.24,0,.51-.15,1.08-.73,1.2ZM27.85,104.9c-.15-.06-.29-.11-.49-.05l.02,1.15c.04.15.45.09.56-.02.23-.23.26-.93-.09-1.08Z"/>
        <path class="st1" d="M54.1,108.33l-.02-2.14c0-.19-.22-.33-.35-.32-.14,0-.34.13-.35.33l-.05,2.04c-.08.15-.49.15-.77.11v-3.08s.54-.01.54-.01c.11,0,.2.16.21.31.29-.31.62-.37,1.01-.29.26.06.56.45.57.83l.03,2.24h-.83Z"/>
        <path class="st1" d="M33.26,108.31l-.02-2.13c0-.19-.22-.33-.35-.33-.14,0-.34.14-.35.33l-.05,2.04c-.08.15-.49.15-.77.11v-3.08s.54-.01.54-.01c.11,0,.19.16.21.31.26-.35.61-.39,1-.28.27.08.57.45.57.84v2.11c-.11.15-.48.17-.78.09Z"/>
        <path class="st1" d="M35.98,108.03c-.36.4-1,.43-1.32.09-.35-.38-.41-.99,0-1.37.36-.35.9-.38,1.35-.4.12-.26-.19-.54-.49-.52s-.48.04-.76.28c-.11-.21-.12-.47-.01-.66.15-.26,1.19-.34,1.59-.06.2.14.42.43.42.79v2.13c-.17.06-.38.05-.53.02-.1-.02-.18-.16-.24-.29ZM36,106.9c-.34-.04-.64-.01-.81.18-.22.24-.1.62.21.7.21.06.47-.05.56-.35.05-.17.12-.35.04-.53Z"/>
        <path class="st1" d="M56.84,108.03c-.41.44-1.02.42-1.36.03-.36-.42-.34-1.05.15-1.39.36-.26.8-.33,1.25-.28.08-.35-.19-.54-.5-.54-.29,0-.49.06-.76.26-.11-.17-.14-.54.01-.67.26-.22.63-.19.96-.21.52-.03,1,.33,1.01.86l.02,2.21c-.19.06-.37.06-.54.02-.1-.02-.18-.16-.23-.29ZM56.86,106.9c-.34-.05-.58-.02-.75.13-.22.2-.22.53,0,.67.17.11.4.13.59-.08.17-.19.23-.48.16-.73Z"/>
        <path class="st1" d="M30.41,108.03c-.44.49-1.04.38-1.4-.05-.33-.39-.24-1.05.26-1.36.34-.21.79-.23,1.17-.26.08-.1,0-.3-.05-.37-.16-.23-.76-.21-1.2.11-.1-.14-.14-.56.01-.67.88-.5,1.96-.06,1.96.54v2.35c-.42.1-.66-.01-.75-.3ZM30.4,106.92c-.15-.09-.43-.03-.52,0-.26.08-.37.3-.33.51.03.18.22.41.47.35.36-.08.57-.57.39-.86Z"/>
        <path class="st1" d="M51.28,108.01c-.39.44-.98.43-1.36.02s-.33-1.09.2-1.41c.35-.21.78-.25,1.17-.25.06-.17,0-.28-.05-.39-.13-.22-.76-.22-1.2.12-.11-.16-.14-.55.01-.67.29-.23.7-.2,1.06-.2.54,0,.93.38.93.93l-.02,2.11c-.21.16-.66.07-.73-.27ZM51.29,106.9c-.18-.03-.37-.03-.56.02-.25.07-.36.3-.33.51.03.18.23.41.46.35.42-.11.56-.49.43-.89Z"/>
        <path class="st1" d="M42.3,107.48c.16.31.92.36,1.35.02.05.24.04.38,0,.63-.51.27-1.27.34-1.74-.09-.57-.53-.61-1.33-.34-2,.21-.54.58-.84,1.13-.82.46.02.94.35,1.04.88l.16.89h-1.65c-.05.19-.02.34.06.49ZM42.99,106.45c.16-.04.05-.47-.1-.57-.17-.13-.34-.14-.49,0s-.21.36-.15.59c.23,0,.46.06.74-.02Z"/>
        <path class="st1" d="M48.36,107.33c.2.43.7.49,1.11.23.14.18.13.4.07.59-.07.21-1.04.37-1.64-.17s-.63-1.91.12-2.51c.4-.32,1.02-.35,1.5-.09l-.1.59c-.25-.11-.65-.23-.89-.01-.35.32-.38.89-.17,1.36Z"/>
        <path class="st1" d="M45.03,106.43l-.03,1.89h-.71s-.02-2.55-.02-2.55c0-.12-.11-.29-.08-.36.08-.24.67-.22.7-.1l.07.36c.18-.22.42-.56.76-.39.17.09.18.48.09.68-.3-.05-.77.08-.77.47Z"/>
        <path class="st1" d="M46.98,108.3c-.27.08-.52.07-.81-.03l-.02-2.92c.25-.15.53-.14.83-.08v3.03Z"/>
      </g>
      <path class="st1" d="M46.95,104.76c-.26.12-.5.11-.74.01-.09-.24-.09-.47,0-.72.26-.08.48-.07.76-.04.03.25.03.44-.02.74Z"/>
      <g>
        <path class="st1" d="M32,104.33c-.16-.12-.15-.53,0-.68.41.16.82.38,1.2.17.28-.15.39-.63.33-.97-.22.24-.53.51-.87.41-.68-.19-.89-.8-.88-1.43,0-.58.03-1.1.52-1.48.38-.29.91-.23,1.2.14.12-.33.36-.38.77-.3v3.15c-.01.74-.6,1.24-1.33,1.18-.3-.02-.63.04-.94-.19ZM33.42,101.14c-.09-.22-.19-.38-.43-.35-.41.05-.53.77-.37,1.46.06.26.2.44.47.41.38-.03.62-.81.33-1.53Z"/>
        <path class="st1" d="M28.91,102.99c-.5.43-1.37.43-1.87,0-.86-.73-.86-2.81,0-3.55.5-.43,1.37-.43,1.87,0,.86.73.86,2.81,0,3.55ZM28.27,99.82c-.15-.09-.49-.09-.62.02-.42.38-.41.86-.41,1.38s-.02,1,.41,1.37c.15.13.52.12.67-.02.59-.54.52-2.4-.06-2.75Z"/>
        <path class="st1" d="M39.03,103.27v-1.96c.01-.24-.07-.4-.3-.46-.17-.04-.43.1-.43.36l-.02,2.01c-.29.09-.51.09-.81.04l.03-2.95c0-.14.33-.16.43-.14.14.03.26.14.32.32.26-.3.64-.39,1-.28.25.08.58.45.58.82l.02,2.24h-.83Z"/>
        <path class="st1" d="M54.82,103.27v-1.96c.01-.24-.07-.4-.3-.46-.17-.04-.43.1-.43.36l-.02,2.01c-.29.09-.51.09-.81.04l.03-2.95c0-.14.33-.16.43-.14.14.03.26.14.32.32.27-.3.63-.39,1-.28.28.09.56.45.57.84l.04,2.22h-.83Z"/>
        <path class="st1" d="M52.88,101.78c0,.68-.26,1.24-.78,1.43-.56.2-1.29.1-1.59-.45-.28-.51-.3-1.12-.15-1.65.2-.7.85-1.09,1.57-.89.65.18.95.85.95,1.57ZM52.02,102.23v-.99c0-.29-.21-.45-.45-.45s-.45.16-.45.45v.99c0,.29.21.45.45.45s.45-.16.45-.45Z"/>
        <path class="st1" d="M45.37,102.98c-.34.46-1.04.4-1.39.04-.37-.39-.29-1.08.18-1.42.36-.26.83-.24,1.24-.32.12-.23-.19-.53-.49-.5s-.49.06-.77.27c-.11-.17-.13-.54.01-.67.26-.22.63-.19.96-.21.52-.03,1,.33,1.01.86l.02,2.21c-.19.06-.38.05-.54.02-.11-.03-.18-.16-.24-.29ZM45.42,101.86c-.38-.08-.65-.03-.81.17s-.13.44-.01.59c.11.14.38.23.56.07.22-.2.3-.56.27-.83Z"/>
        <path class="st1" d="M36.22,103.14c-.36,0-.75.36-1.16.05-.27-.21-.54-.6-.43-1.03.1-.39.41-.69.89-.74l.73-.09c.06-.35-.19-.53-.51-.53-.29,0-.49.06-.76.26-.11-.16-.13-.47-.02-.6.29-.34,1.3-.45,1.77.04.37.39.24,1.43.28,2.64.01.34-.57.08-.78,0ZM36.24,102.28c.02-.16.02-.41-.07-.43-.42-.11-.73.07-.83.45-.06.25.22.47.43.46.23-.01.42-.14.47-.48Z"/>
        <path class="st1" d="M43.55,103.29l-1.98-.07c-.21-.26.05-.74.21-.99l.96-1.41-1.09-.04c-.12-.08-.07-.55.08-.56.58-.05,1.14-.09,1.72.02.19.03.16.55.05.72l-1.11,1.65c.4.12.75.04,1.16.05v.63Z"/>
        <path class="st1" d="M48.56,102.55c.1.1.14.53-.02.66-.28.12-.8.14-1.11.02-.73-.26-.96-1.08-.85-1.78.07-.46.27-.86.58-1.05.42-.26.93-.32,1.38-.1.16.08.13.52.01.64-.35-.16-.65-.19-.9-.02-.4.26-.36,1.35-.06,1.58.23.18.53.25.96.05Z"/>
        <path class="st1" d="M31.58,100.92c-.4-.1-.79.12-.79.53l-.02,1.82h-.72s0-3.05,0-3.05c.16-.05.32-.05.46-.03.11.01.19.16.25.39.25-.35.48-.45.83-.37v.72Z"/>
        <path class="st1" d="M41.2,103.2c-.32.13-.54.11-.84.06l.05-2.95c0-.2.74-.2.74,0l.05,2.89Z"/>
        <path class="st1" d="M49.77,103.25c-.26.06-.47.05-.74.02l.03-2.96c.09-.16.5-.16.69-.09v3.04Z"/>
        <rect class="st2" x="40.37" y="98.95" width=".83" height=".83"/>
        <rect class="st1" x="49.04" y="98.95" width=".72" height=".83"/>
        <path class="st1" d="M52.25,99.06c-.27.67-.64,1.15-1.09.84.22-.29.3-.52.38-.83h.71Z"/>
      </g>
      <g>
        <path class="st1" d="M25.06,106.18c0,4.53-3.68,8.21-8.22,8.21s-8.22-3.68-8.22-8.21,3.68-8.21,8.22-8.21,8.22,3.68,8.22,8.21ZM24.61,106.18c0-4.28-3.47-7.75-7.75-7.75s-7.75,3.47-7.75,7.75,3.47,7.75,7.75,7.75,7.75-3.47,7.75-7.75Z"/>
        <path class="st1" d="M21.91,102.54l.09.09c-.08.25.11.38.24.61,1.23,1.99,1.13,4.18-.15,6.13l-.72.85-.63.54.05.05.58-.2c.28.02.66.43.66.71.01.36-.41.55-.64.71l-.59-.67c-.14-.15-.22-.25-.07-.47l-.05-.09c-1.87,1.3-4.27,1.64-6.41.71-1.93-.84-3.35-2.5-3.63-4.62-.38-2.91,1.54-5.46,4.32-6.29,2.29-.68,4.93-.06,6.47,1.67.15.16.27.28.47.27ZM13.03,110.15c2.45,2.07,6.21,1.78,8.29-.61,1.75-2.01,1.71-4.9-.1-6.83-2.23-2.38-5.98-2.51-8.38-.34s-2.33,5.65.19,7.78ZM21.53,111.59c.16,0,.25-.37.06-.52-.15-.11-.36-.2-.56.05.16.15.31.39.51.47Z"/>
        <path class="st4" d="M17.39,113.49c-.17-.13-.14-.35-.19-.51-.11.13-.08.29-.05.36.09.17-.27.24-.28.13-.05-.33-.05-.74-.15-1.12.02-.12.35-.14.45-.07.12.08.18.27.18.51.23-.12.21-.29.21-.55,0-.13.49-.14.49,0v1.13s-.22.07-.24.03c-.03-.06-.04-.18-.11-.31-.05.17-.11.32-.32.42Z"/>
        <path class="st4" d="M12.75,110.75c.2.33-.74,1.02-.82.98-.33-.14-.02-.49-.1-.83-.16.19-.27.41-.61.3.24-.42.49-.83,1.01-1.08v1.01c0-.21.41-.56.53-.38Z"/>
        <path class="st1" d="M12.64,101.52c-.14.04-.27-.3-.46-.16-.28.2.21.37.06.58-.07.1-.18.15-.29.03l-.73-.75c.24-.27.42-.51.77-.68.25.32.51.6.83.74-.02.13-.13.23-.18.24Z"/>
        <path class="st4" d="M20.07,112.73c-.18-.3-.46-.66-.55-.94.17-.29.51-.08.73.05.24.14-.08-.5-.1-.47.04-.04.16-.06.27-.15l.65,1.09c-.26.2-.51.13-.71-.12-.13-.16-.32.04-.16.16.13.1.14.2.16.26.05.16-.2.25-.28.12Z"/>
        <path class="st2" d="M22,102.64l-.09-.09c-.04-.14-.12-.25-.25-.37l1.04-.71.64.76-.65.36-.46-.44c-.16.46.56.51.12.83l-.35-.33ZM22.83,102.04c0-.06-.05-.11-.11-.11s-.11.05-.11.11.05.11.11.11.11-.05.11-.11Z"/>
        <path class="st1" d="M13.95,100.34c.04.48-.38.71-.77.67-.27-.03-.57-.4-.54-.75.02-.28.4-.65.74-.55.27.08.56.3.58.63ZM13.54,100.64c.23-.19-.04-.67-.34-.64-.23.02-.25.34-.14.5.07.11.27.32.48.14Z"/>
        <path class="st4" d="M16.59,99.63c.12.35-.24.54-.43.56-.29.03-.53,0-.71-.35.19-.12.38-.04.61.04.51-.34-.48.02-.62-.5-.04-.15.1-.38.32-.47.15-.07.31-.08.44,0,.11.06.34.2.13.42-.17-.14-.46-.28-.57.01.26.05.73.02.83.31Z"/>
        <path class="st1" d="M13.68,112.01c-.23.4-.56.54-.88.4-.3-.12-.52-.47-.34-.8.16-.29.52-.53.76-.45.36.13.66.49.46.85ZM13.36,111.92c.12-.21,0-.34-.11-.38-.13-.04-.27-.02-.37.07-.13.12-.16.26-.14.36.04.14.18.24.32.2.11-.03.19-.08.29-.25Z"/>
        <path class="st1" d="M18.96,113.25c-.55-.08-.68-1.03-.65-1.11.05-.12.32-.14.34-.06.07.31.12.65.32.95.53-.32-.06-.82.06-1.09.04-.09.25-.18.29-.02l.24.85c.09.31-.37.51-.61.48Z"/>
        <path class="st4" d="M11.22,103.15l-1-.63c.01-.25.18-.58.42-.67s.47.03.57.19c.12.18.04.43-.16.59.14.11.2.19.27.24.1.07.02.27-.09.29Z"/>
        <path class="st1" d="M20.91,100.1c.1-.11.25,0,.26.03.02.07-.35.84-.78.94-.2.05-.63-.26-.64-.47.07-.35.32-.73.58-.94.07-.06.28.18.21.25-.16.16-.28.4-.39.54-.09.11.06.35.15.31l.61-.67Z"/>
        <path class="st1" d="M18.02,100.18c-.27.11-.41-.55-.72-.25-.14.13-.26.2-.47.13l.55-1.08c.06-.11.14-.15.23-.14.13,0,.18.1.22.25l.24.8c.03.1.03.26-.04.29Z"/>
        <path class="st4" d="M14.99,111.95c-.25.57-.79,1.17-1.05.99-.12-.08-.03-.2-.01-.37l.09-1c.34.23.23.56.26.91.25-.2.21-.59.72-.53Z"/>
        <path class="st1" d="M23.82,104.06c-.19.12-.26-.13-.33-.13-.1,0-.23.14-.42.19-.03-.13.09-.29.05-.37-.06-.13-.21-.11-.36-.32.17-.05.3.07.4.03.14-.06.19-.23.32-.41.09.28.31.37.62.36-.05.25-.22.23-.28.3s.08.31,0,.35Z"/>
        <path class="st1" d="M10.64,104.4c-.18-.05-.25-.15-.39-.18-.1-.02-.19.15-.42.21.15-.32.03-.52-.25-.7l.46-.06c.11-.01.17-.2.23-.4.07.11.06.25.11.32.11.15.62.06.46.25-.03.04-.08.06-.19.1-.11.05-.09.22-.01.45Z"/>
        <path class="st1" d="M21.28,101.71c-.08.03-.23-.1-.24-.2l.64-.67c-.12-.06-.2-.1-.26-.15-.08-.06,0-.13.05-.16.07-.05.16-.05.25.01l.69.5c-.13.28-.39.06-.51.06-.2.13-.3.48-.62.6Z"/>
        <path class="st2" d="M23.34,107.97c.29-.16.53.03.6.23.07.22.02.48-.19.6-.18.1-.47-.02-.56-.17-.13-.19-.09-.52.16-.66Z"/>
        <circle class="st4" cx="9.91" cy="105.51" r=".45"/>
        <path class="st1" d="M11.02,109.89c-.12-.09-.22-.17-.35-.19-.11-.02-.23.1-.31.2-.07-.18,0-.28.04-.4-.18-.1-.29-.16-.4-.33.19,0,.31.01.45-.03.1-.03.16-.2.23-.4.07.32.25.48.62.45-.08.26-.26.21-.31.28-.04.06.05.19.03.42Z"/>
        <path class="st1" d="M22.97,109.68l-.34.32c-.04-.19.01-.28.07-.43-.18-.09-.31-.13-.41-.3.2,0,.31,0,.45-.03.1-.03.16-.2.22-.4l.14.31c.06.13.25.13.48.14-.19.25-.29.37-.26.72l-.35-.32Z"/>
        <path class="st1" d="M19.34,100.19c.1.05.11.22.04.31l-.92-.24.37-1.08c.03-.09.4-.04.38.05-.11.29-.32.54-.28.82.01.1.28.15.42.13Z"/>
        <path class="st4" d="M24.15,107.72c-.17.02-.26-.1-.35-.32-.09.17-.14.34-.36.33-.01-.33-.05-.58.04-.88.17.06.25.19.31.19s.15-.13.31-.19c.09.28.06.46.04.87Z"/>
        <path class="st4" d="M24.39,106.59c-.34-.08-.52-.09-.86,0l.24-.84h.37s.25.83.25.83Z"/>
        <path class="st2" d="M24.18,104.94c-.2.24-.38.45-.67.68-.12-.29-.16-.69.01-.93.14-.18.56.01.65.25Z"/>
        <path class="st1" d="M15.29,113.03c-.04.16-.12.21-.17.25-.05.04-.28,0-.26-.09l.31-1.07c.04-.14.35-.11.32,0l-.2.9Z"/>
        <path class="st4" d="M10.1,106.44c.12.25-.43.79-.36.76-.07.03-.25,0-.24-.06.01-.44-.07-.77.17-.86.12-.05.38.04.44.16Z"/>
        <path class="st1" d="M10.4,108.05c.01.21-.5.3-.6.09,0-.12.2-.16.32-.14-.1-.1-.22-.12-.27-.18-.08-.11-.06-.27,0-.32.11-.08.28-.13.54-.08-.03.2-.01.38,0,.63Z"/>
        <path class="st1" d="M22.07,110.31c.32.43.9.54.54.76-.11.07-.16.03-.3-.08l-.71-.62c-.02-.06.08-.17.14-.18.1-.02.25.02.33.12Z"/>
        <path class="st1" d="M17.4,104.97s.01.07,0,.1c-.02.04-.09.04-.11.06-.21-.36-.49-.45-.89-.43-.28.01-.41.13-.42.36,0,.14.19.41.33.34.09-.24.56-.35.59-.19,0,.29-.03.44.08.69.1.22.37.4.64.24.71-.42,1.5-.02,2.06.71.55.12,1.02.34.96.71-.06.34-.54.31-.67,1.25-.04.3-.52.24-.65.37-.3.29-.58.57-1.01.67s-1.01.98-.95,1.1c.02.05.19.09.18.23-.27.16-.85-.18-.72-.53l.82-2.12c-.35-.36-.63-.87-.49-1.41.06-.21.32-.33.29-.73-.42.22-.61-.15-.88-.36-.36-.27-.93-.19-1.25-.52l-.14-.3c-.03-.06-.21,0-.31.01-.67-.62-.19-1.63-.75-1.99-.35-.22-.87.46-1.49.2.14-.21.32-.18.47-.26-.02-.25-.14-.54-.01-.74.18-.22.56-.45.86-.47l1.32-.06c-.1-.13-.12-.32-.1-.42,0-.08.23-.05.28-.11.3-.3,1.86-.23,2.1.22.13.25.11.43,0,.61.03.05.11.14.14.13s.08-.11.13-.2c.32.2.66.5.79.98-1.26.3-.88.91-1.08,1.06-.18.14-.29.23-.31.4-.02.14.04.32.16.4Z"/>
        <path class="st2" d="M17.3,105.13s.1-.01.11-.06c.01-.03,0-.07,0-.1.4-.05.79-.09,1.25.01-.24.29-.48.25-.76.18-.17-.04-.47.15-.59-.03Z"/>
      </g>
    </g>
  </g>
  <path class="st6" d="M127.4-.12v-.08H-.21v.08h-.12v128.56h128.56V-.12h-.84ZM2.26,125.85v-63.25h123.39v63.25H2.26Z"/>
  <g>
    <path class="st7" d="M22.68,8.63h10.26c6.28,0,10.79,1.61,10.79,7.13,0,5.98-5.9,7.35-10.79,7.35h-2.2v7.16h-8.06V8.63ZM32.03,18.24c2.13,0,3.98-.47,3.98-2.45s-1.78-2.39-3.98-2.39h-1.47v4.84h1.47Z"/>
    <path class="st7" d="M51.34,8.63h9.78l9.08,21.64h-8.52l-1.57-4.31h-8.31l-1.75,4.31h-7.89l9.18-21.64ZM58.71,21.24l-.42-1.15c-.73-1.89-1.85-5.52-2.13-6.7h-.07c-.28,1.18-1.5,4.74-2.23,6.73l-.42,1.12h5.27Z"/>
    <path class="st7" d="M72.29,8.63h12.74l1.15,3.78c1.01,3.35,1.96,6.85,2.79,10.2h.07c.94-3.35,1.92-6.85,3.04-10.2l1.26-3.78h12.01v21.64h-7.68v-3.69c0-4.15.07-9.11.17-13.11h-.07c-.94,3.26-2.83,8.68-3.77,11.35l-1.92,5.46h-6.95l-2.06-5.67c-.91-2.45-3-8.59-3.84-11.13h-.07c.1,3.97.17,8.96.17,13.11v3.69h-7.05V8.63Z"/>
    <path class="st7" d="M30.67,34.46h10.23c8.24,0,14.7,2.88,14.7,10.91,0,7.6-6.63,10.73-14.7,10.73h-10.23v-21.64ZM39.37,51.2c4.75,0,8.13-1.4,8.13-5.86s-3.39-5.89-8.13-5.89h-.56v11.75h.56Z"/>
    <path class="st7" d="M57.9,55.6l.59-5.39c2.51.87,5.31,1.27,7.09,1.27,2.09,0,3.28-.4,3.28-1.61,0-.84-1.01-1.49-4.08-2.48-3.53-1.15-6.77-2.51-6.77-6.29,0-5.21,5.48-7.07,10.96-7.07,2.79,0,5.13.28,7.12.68l-.38,5.27c-2.23-.74-4.47-.99-6.28-.99-1.92,0-3.28.37-3.28,1.46,0,.81.63,1.18,3.74,2.17,4.36,1.4,7.05,3.19,7.05,6.79,0,4.62-4.01,7.13-10.89,7.13-2.9,0-5.59-.31-8.13-.93Z"/>
    <path class="st7" d="M79.09,55.6l.59-5.39c2.51.87,5.31,1.27,7.09,1.27,2.09,0,3.28-.4,3.28-1.61,0-.84-1.01-1.49-4.08-2.48-3.53-1.15-6.77-2.51-6.77-6.29,0-5.21,5.48-7.07,10.96-7.07,2.79,0,5.13.28,7.12.68l-.38,5.27c-2.23-.74-4.47-.99-6.28-.99-1.92,0-3.28.37-3.28,1.46,0,.81.63,1.18,3.74,2.17,4.36,1.4,7.05,3.19,7.05,6.79,0,4.62-4.02,7.13-10.89,7.13-2.9,0-5.59-.31-8.13-.93Z"/>
  </g>
  <path class="st0" d="M16.3,37.34"/>
  <path class="st0" d="M16.52,48.42"/>
  <path class="st0" d="M-13.4,54.18"/>
</svg>